<svg xmlns="http://www.w3.org/2000/svg" viewBox="0 0 500 500" width="500" height="500">

        <style>
            .edge { stroke: black; stroke-width: 2; }
        </style>
    
<line class="edge" x1="78.57142857142857" y1="78.57142857142857" x2="50.0" y2="78.57142857142857"/>
<line class="edge" x1="50.0" y1="78.57142857142857" x2="50.0" y2="50.0"/>
<line class="edge" x1="78.57142857142857" y1="50.0" x2="107.14285714285714" y2="50.0"/>
<line class="edge" x1="107.14285714285714" y1="50.0" x2="135.71428571428572" y2="50.0"/>
<line class="edge" x1="135.71428571428572" y1="78.57142857142857" x2="107.14285714285714" y2="78.57142857142857"/>
<line class="edge" x1="135.71428571428572" y1="50.0" x2="164.28571428571428" y2="50.0"/>
<line class="edge" x1="164.28571428571428" y1="78.57142857142857" x2="135.71428571428572" y2="78.57142857142857"/>
<line class="edge" x1="164.28571428571428" y1="50.0" x2="192.85714285714286" y2="50.0"/>
<line class="edge" x1="192.85714285714286" y1="50.0" x2="192.85714285714286" y2="78.57142857142857"/>
<line class="edge" x1="192.85714285714286" y1="50.0" x2="221.42857142857144" y2="50.0"/>
<line class="edge" x1="192.85714285714286" y1="78.57142857142857" x2="192.85714285714286" y2="50.0"/>
<line class="edge" x1="221.42857142857144" y1="50.0" x2="250.0" y2="50.0"/>
<line class="edge" x1="250.0" y1="50.0" x2="278.57142857142856" y2="50.0"/>
<line class="edge" x1="278.57142857142856" y1="50.0" x2="307.14285714285717" y2="50.0"/>
<line class="edge" x1="307.14285714285717" y1="50.0" x2="307.14285714285717" y2="78.57142857142857"/>
<line class="edge" x1="307.14285714285717" y1="78.57142857142857" x2="278.57142857142856" y2="78.57142857142857"/>
<line class="edge" x1="307.14285714285717" y1="50.0" x2="335.7142857142857" y2="50.0"/>
<line class="edge" x1="307.14285714285717" y1="78.57142857142857" x2="307.14285714285717" y2="50.0"/>
<line class="edge" x1="335.7142857142857" y1="50.0" x2="364.2857142857143" y2="50.0"/>
<line class="edge" x1="364.2857142857143" y1="78.57142857142857" x2="335.7142857142857" y2="78.57142857142857"/>
<line class="edge" x1="364.2857142857143" y1="50.0" x2="392.8571428571429" y2="50.0"/>
<line class="edge" x1="392.8571428571429" y1="78.57142857142857" x2="364.2857142857143" y2="78.57142857142857"/>
<line class="edge" x1="392.8571428571429" y1="50.0" x2="421.42857142857144" y2="50.0"/>
<line class="edge" x1="421.42857142857144" y1="78.57142857142857" x2="392.8571428571429" y2="78.57142857142857"/>
<line class="edge" x1="421.42857142857144" y1="50.0" x2="450.0" y2="50.0"/>
<line class="edge" x1="450.0" y1="50.0" x2="450.0" y2="78.57142857142857"/>
<line class="edge" x1="50.0" y1="78.57142857142857" x2="78.57142857142857" y2="78.57142857142857"/>
<line class="edge" x1="50.0" y1="107.14285714285714" x2="50.0" y2="78.57142857142857"/>
<line class="edge" x1="107.14285714285714" y1="78.57142857142857" x2="107.14285714285714" y2="107.14285714285714"/>
<line class="edge" x1="107.14285714285714" y1="107.14285714285714" x2="78.57142857142857" y2="107.14285714285714"/>
<line class="edge" x1="107.14285714285714" y1="78.57142857142857" x2="135.71428571428572" y2="78.57142857142857"/>
<line class="edge" x1="107.14285714285714" y1="107.14285714285714" x2="107.14285714285714" y2="78.57142857142857"/>
<line class="edge" x1="135.71428571428572" y1="78.57142857142857" x2="164.28571428571428" y2="78.57142857142857"/>
<line class="edge" x1="164.28571428571428" y1="107.14285714285714" x2="135.71428571428572" y2="107.14285714285714"/>
<line class="edge" x1="192.85714285714286" y1="78.57142857142857" x2="192.85714285714286" y2="107.14285714285714"/>
<line class="edge" x1="192.85714285714286" y1="107.14285714285714" x2="164.28571428571428" y2="107.14285714285714"/>
<line class="edge" x1="221.42857142857144" y1="78.57142857142857" x2="221.42857142857144" y2="107.14285714285714"/>
<line class="edge" x1="221.42857142857144" y1="107.14285714285714" x2="192.85714285714286" y2="107.14285714285714"/>
<line class="edge" x1="192.85714285714286" y1="107.14285714285714" x2="192.85714285714286" y2="78.57142857142857"/>
<line class="edge" x1="250.0" y1="78.57142857142857" x2="250.0" y2="107.14285714285714"/>
<line class="edge" x1="221.42857142857144" y1="107.14285714285714" x2="221.42857142857144" y2="78.57142857142857"/>
<line class="edge" x1="278.57142857142856" y1="78.57142857142857" x2="278.57142857142856" y2="107.14285714285714"/>
<line class="edge" x1="250.0" y1="107.14285714285714" x2="250.0" y2="78.57142857142857"/>
<line class="edge" x1="278.57142857142856" y1="78.57142857142857" x2="307.14285714285717" y2="78.57142857142857"/>
<line class="edge" x1="278.57142857142856" y1="107.14285714285714" x2="278.57142857142856" y2="78.57142857142857"/>
<line class="edge" x1="335.7142857142857" y1="78.57142857142857" x2="335.7142857142857" y2="107.14285714285714"/>
<line class="edge" x1="335.7142857142857" y1="107.14285714285714" x2="307.14285714285717" y2="107.14285714285714"/>
<line class="edge" x1="335.7142857142857" y1="78.57142857142857" x2="364.2857142857143" y2="78.57142857142857"/>
<line class="edge" x1="335.7142857142857" y1="107.14285714285714" x2="335.7142857142857" y2="78.57142857142857"/>
<line class="edge" x1="364.2857142857143" y1="78.57142857142857" x2="392.8571428571429" y2="78.57142857142857"/>
<line class="edge" x1="392.8571428571429" y1="78.57142857142857" x2="421.42857142857144" y2="78.57142857142857"/>
<line class="edge" x1="421.42857142857144" y1="78.57142857142857" x2="421.42857142857144" y2="107.14285714285714"/>
<line class="edge" x1="421.42857142857144" y1="107.14285714285714" x2="392.8571428571429" y2="107.14285714285714"/>
<line class="edge" x1="450.0" y1="78.57142857142857" x2="450.0" y2="107.14285714285714"/>
<line class="edge" x1="421.42857142857144" y1="107.14285714285714" x2="421.42857142857144" y2="78.57142857142857"/>
<line class="edge" x1="78.57142857142857" y1="107.14285714285714" x2="78.57142857142857" y2="135.71428571428572"/>
<line class="edge" x1="50.0" y1="135.71428571428572" x2="50.0" y2="107.14285714285714"/>
<line class="edge" x1="78.57142857142857" y1="107.14285714285714" x2="107.14285714285714" y2="107.14285714285714"/>
<line class="edge" x1="107.14285714285714" y1="107.14285714285714" x2="107.14285714285714" y2="135.71428571428572"/>
<line class="edge" x1="78.57142857142857" y1="135.71428571428572" x2="78.57142857142857" y2="107.14285714285714"/>
<line class="edge" x1="135.71428571428572" y1="107.14285714285714" x2="135.71428571428572" y2="135.71428571428572"/>
<line class="edge" x1="107.14285714285714" y1="135.71428571428572" x2="107.14285714285714" y2="107.14285714285714"/>
<line class="edge" x1="135.71428571428572" y1="107.14285714285714" x2="164.28571428571428" y2="107.14285714285714"/>
<line class="edge" x1="135.71428571428572" y1="135.71428571428572" x2="135.71428571428572" y2="107.14285714285714"/>
<line class="edge" x1="164.28571428571428" y1="107.14285714285714" x2="192.85714285714286" y2="107.14285714285714"/>
<line class="edge" x1="192.85714285714286" y1="107.14285714285714" x2="192.85714285714286" y2="135.71428571428572"/>
<line class="edge" x1="192.85714285714286" y1="107.14285714285714" x2="221.42857142857144" y2="107.14285714285714"/>
<line class="edge" x1="192.85714285714286" y1="135.71428571428572" x2="192.85714285714286" y2="107.14285714285714"/>
<line class="edge" x1="250.0" y1="107.14285714285714" x2="250.0" y2="135.71428571428572"/>
<line class="edge" x1="278.57142857142856" y1="107.14285714285714" x2="278.57142857142856" y2="135.71428571428572"/>
<line class="edge" x1="278.57142857142856" y1="135.71428571428572" x2="250.0" y2="135.71428571428572"/>
<line class="edge" x1="250.0" y1="135.71428571428572" x2="250.0" y2="107.14285714285714"/>
<line class="edge" x1="278.57142857142856" y1="135.71428571428572" x2="278.57142857142856" y2="107.14285714285714"/>
<line class="edge" x1="307.14285714285717" y1="107.14285714285714" x2="335.7142857142857" y2="107.14285714285714"/>
<line class="edge" x1="335.7142857142857" y1="135.71428571428572" x2="307.14285714285717" y2="135.71428571428572"/>
<line class="edge" x1="364.2857142857143" y1="107.14285714285714" x2="364.2857142857143" y2="135.71428571428572"/>
<line class="edge" x1="364.2857142857143" y1="135.71428571428572" x2="335.7142857142857" y2="135.71428571428572"/>
<line class="edge" x1="392.8571428571429" y1="107.14285714285714" x2="392.8571428571429" y2="135.71428571428572"/>
<line class="edge" x1="392.8571428571429" y1="135.71428571428572" x2="364.2857142857143" y2="135.71428571428572"/>
<line class="edge" x1="364.2857142857143" y1="135.71428571428572" x2="364.2857142857143" y2="107.14285714285714"/>
<line class="edge" x1="392.8571428571429" y1="107.14285714285714" x2="421.42857142857144" y2="107.14285714285714"/>
<line class="edge" x1="392.8571428571429" y1="135.71428571428572" x2="392.8571428571429" y2="107.14285714285714"/>
<line class="edge" x1="450.0" y1="107.14285714285714" x2="450.0" y2="135.71428571428572"/>
<line class="edge" x1="78.57142857142857" y1="135.71428571428572" x2="78.57142857142857" y2="164.28571428571428"/>
<line class="edge" x1="50.0" y1="164.28571428571428" x2="50.0" y2="135.71428571428572"/>
<line class="edge" x1="78.57142857142857" y1="164.28571428571428" x2="78.57142857142857" y2="135.71428571428572"/>
<line class="edge" x1="135.71428571428572" y1="135.71428571428572" x2="135.71428571428572" y2="164.28571428571428"/>
<line class="edge" x1="135.71428571428572" y1="164.28571428571428" x2="107.14285714285714" y2="164.28571428571428"/>
<line class="edge" x1="164.28571428571428" y1="135.71428571428572" x2="164.28571428571428" y2="164.28571428571428"/>
<line class="edge" x1="135.71428571428572" y1="164.28571428571428" x2="135.71428571428572" y2="135.71428571428572"/>
<line class="edge" x1="192.85714285714286" y1="164.28571428571428" x2="164.28571428571428" y2="164.28571428571428"/>
<line class="edge" x1="164.28571428571428" y1="164.28571428571428" x2="164.28571428571428" y2="135.71428571428572"/>
<line class="edge" x1="221.42857142857144" y1="135.71428571428572" x2="221.42857142857144" y2="164.28571428571428"/>
<line class="edge" x1="221.42857142857144" y1="164.28571428571428" x2="192.85714285714286" y2="164.28571428571428"/>
<line class="edge" x1="250.0" y1="135.71428571428572" x2="250.0" y2="164.28571428571428"/>
<line class="edge" x1="221.42857142857144" y1="164.28571428571428" x2="221.42857142857144" y2="135.71428571428572"/>
<line class="edge" x1="250.0" y1="135.71428571428572" x2="278.57142857142856" y2="135.71428571428572"/>
<line class="edge" x1="250.0" y1="164.28571428571428" x2="250.0" y2="135.71428571428572"/>
<line class="edge" x1="307.14285714285717" y1="135.71428571428572" x2="307.14285714285717" y2="164.28571428571428"/>
<line class="edge" x1="307.14285714285717" y1="164.28571428571428" x2="278.57142857142856" y2="164.28571428571428"/>
<line class="edge" x1="307.14285714285717" y1="135.71428571428572" x2="335.7142857142857" y2="135.71428571428572"/>
<line class="edge" x1="307.14285714285717" y1="164.28571428571428" x2="307.14285714285717" y2="135.71428571428572"/>
<line class="edge" x1="335.7142857142857" y1="135.71428571428572" x2="364.2857142857143" y2="135.71428571428572"/>
<line class="edge" x1="364.2857142857143" y1="164.28571428571428" x2="335.7142857142857" y2="164.28571428571428"/>
<line class="edge" x1="364.2857142857143" y1="135.71428571428572" x2="392.8571428571429" y2="135.71428571428572"/>
<line class="edge" x1="392.8571428571429" y1="164.28571428571428" x2="364.2857142857143" y2="164.28571428571428"/>
<line class="edge" x1="421.42857142857144" y1="135.71428571428572" x2="421.42857142857144" y2="164.28571428571428"/>
<line class="edge" x1="421.42857142857144" y1="164.28571428571428" x2="392.8571428571429" y2="164.28571428571428"/>
<line class="edge" x1="450.0" y1="135.71428571428572" x2="450.0" y2="164.28571428571428"/>
<line class="edge" x1="421.42857142857144" y1="164.28571428571428" x2="421.42857142857144" y2="135.71428571428572"/>
<line class="edge" x1="78.57142857142857" y1="164.28571428571428" x2="78.57142857142857" y2="192.85714285714286"/>
<line class="edge" x1="50.0" y1="192.85714285714286" x2="50.0" y2="164.28571428571428"/>
<line class="edge" x1="107.14285714285714" y1="192.85714285714286" x2="78.57142857142857" y2="192.85714285714286"/>
<line class="edge" x1="78.57142857142857" y1="192.85714285714286" x2="78.57142857142857" y2="164.28571428571428"/>
<line class="edge" x1="107.14285714285714" y1="164.28571428571428" x2="135.71428571428572" y2="164.28571428571428"/>
<line class="edge" x1="135.71428571428572" y1="164.28571428571428" x2="135.71428571428572" y2="192.85714285714286"/>
<line class="edge" x1="164.28571428571428" y1="192.85714285714286" x2="135.71428571428572" y2="192.85714285714286"/>
<line class="edge" x1="135.71428571428572" y1="192.85714285714286" x2="135.71428571428572" y2="164.28571428571428"/>
<line class="edge" x1="164.28571428571428" y1="164.28571428571428" x2="192.85714285714286" y2="164.28571428571428"/>
<line class="edge" x1="192.85714285714286" y1="164.28571428571428" x2="192.85714285714286" y2="192.85714285714286"/>
<line class="edge" x1="192.85714285714286" y1="164.28571428571428" x2="221.42857142857144" y2="164.28571428571428"/>
<line class="edge" x1="192.85714285714286" y1="192.85714285714286" x2="192.85714285714286" y2="164.28571428571428"/>
<line class="edge" x1="250.0" y1="164.28571428571428" x2="250.0" y2="192.85714285714286"/>
<line class="edge" x1="250.0" y1="192.85714285714286" x2="221.42857142857144" y2="192.85714285714286"/>
<line class="edge" x1="278.57142857142856" y1="164.28571428571428" x2="278.57142857142856" y2="192.85714285714286"/>
<line class="edge" x1="250.0" y1="192.85714285714286" x2="250.0" y2="164.28571428571428"/>
<line class="edge" x1="278.57142857142856" y1="164.28571428571428" x2="307.14285714285717" y2="164.28571428571428"/>
<line class="edge" x1="307.14285714285717" y1="164.28571428571428" x2="307.14285714285717" y2="192.85714285714286"/>
<line class="edge" x1="278.57142857142856" y1="192.85714285714286" x2="278.57142857142856" y2="164.28571428571428"/>
<line class="edge" x1="335.7142857142857" y1="192.85714285714286" x2="307.14285714285717" y2="192.85714285714286"/>
<line class="edge" x1="307.14285714285717" y1="192.85714285714286" x2="307.14285714285717" y2="164.28571428571428"/>
<line class="edge" x1="335.7142857142857" y1="164.28571428571428" x2="364.2857142857143" y2="164.28571428571428"/>
<line class="edge" x1="364.2857142857143" y1="164.28571428571428" x2="364.2857142857143" y2="192.85714285714286"/>
<line class="edge" x1="364.2857142857143" y1="164.28571428571428" x2="392.8571428571429" y2="164.28571428571428"/>
<line class="edge" x1="364.2857142857143" y1="192.85714285714286" x2="364.2857142857143" y2="164.28571428571428"/>
<line class="edge" x1="392.8571428571429" y1="164.28571428571428" x2="421.42857142857144" y2="164.28571428571428"/>
<line class="edge" x1="421.42857142857144" y1="164.28571428571428" x2="421.42857142857144" y2="192.85714285714286"/>
<line class="edge" x1="450.0" y1="164.28571428571428" x2="450.0" y2="192.85714285714286"/>
<line class="edge" x1="421.42857142857144" y1="192.85714285714286" x2="421.42857142857144" y2="164.28571428571428"/>
<line class="edge" x1="50.0" y1="221.42857142857144" x2="50.0" y2="192.85714285714286"/>
<line class="edge" x1="78.57142857142857" y1="192.85714285714286" x2="107.14285714285714" y2="192.85714285714286"/>
<line class="edge" x1="107.14285714285714" y1="192.85714285714286" x2="107.14285714285714" y2="221.42857142857144"/>
<line class="edge" x1="135.71428571428572" y1="221.42857142857144" x2="107.14285714285714" y2="221.42857142857144"/>
<line class="edge" x1="107.14285714285714" y1="221.42857142857144" x2="107.14285714285714" y2="192.85714285714286"/>
<line class="edge" x1="135.71428571428572" y1="192.85714285714286" x2="164.28571428571428" y2="192.85714285714286"/>
<line class="edge" x1="164.28571428571428" y1="221.42857142857144" x2="135.71428571428572" y2="221.42857142857144"/>
<line class="edge" x1="192.85714285714286" y1="192.85714285714286" x2="192.85714285714286" y2="221.42857142857144"/>
<line class="edge" x1="192.85714285714286" y1="221.42857142857144" x2="164.28571428571428" y2="221.42857142857144"/>
<line class="edge" x1="221.42857142857144" y1="192.85714285714286" x2="221.42857142857144" y2="221.42857142857144"/>
<line class="edge" x1="192.85714285714286" y1="221.42857142857144" x2="192.85714285714286" y2="192.85714285714286"/>
<line class="edge" x1="221.42857142857144" y1="192.85714285714286" x2="250.0" y2="192.85714285714286"/>
<line class="edge" x1="221.42857142857144" y1="221.42857142857144" x2="221.42857142857144" y2="192.85714285714286"/>
<line class="edge" x1="278.57142857142856" y1="192.85714285714286" x2="278.57142857142856" y2="221.42857142857144"/>
<line class="edge" x1="278.57142857142856" y1="221.42857142857144" x2="250.0" y2="221.42857142857144"/>
<line class="edge" x1="278.57142857142856" y1="221.42857142857144" x2="278.57142857142856" y2="192.85714285714286"/>
<line class="edge" x1="307.14285714285717" y1="192.85714285714286" x2="335.7142857142857" y2="192.85714285714286"/>
<line class="edge" x1="335.7142857142857" y1="192.85714285714286" x2="335.7142857142857" y2="221.42857142857144"/>
<line class="edge" x1="364.2857142857143" y1="221.42857142857144" x2="335.7142857142857" y2="221.42857142857144"/>
<line class="edge" x1="335.7142857142857" y1="221.42857142857144" x2="335.7142857142857" y2="192.85714285714286"/>
<line class="edge" x1="392.8571428571429" y1="192.85714285714286" x2="392.8571428571429" y2="221.42857142857144"/>
<line class="edge" x1="392.8571428571429" y1="221.42857142857144" x2="364.2857142857143" y2="221.42857142857144"/>
<line class="edge" x1="421.42857142857144" y1="192.85714285714286" x2="421.42857142857144" y2="221.42857142857144"/>
<line class="edge" x1="392.8571428571429" y1="221.42857142857144" x2="392.8571428571429" y2="192.85714285714286"/>
<line class="edge" x1="450.0" y1="192.85714285714286" x2="450.0" y2="221.42857142857144"/>
<line class="edge" x1="421.42857142857144" y1="221.42857142857144" x2="421.42857142857144" y2="192.85714285714286"/>
<line class="edge" x1="78.57142857142857" y1="221.42857142857144" x2="78.57142857142857" y2="250.0"/>
<line class="edge" x1="50.0" y1="250.0" x2="50.0" y2="221.42857142857144"/>
<line class="edge" x1="107.14285714285714" y1="250.0" x2="78.57142857142857" y2="250.0"/>
<line class="edge" x1="78.57142857142857" y1="250.0" x2="78.57142857142857" y2="221.42857142857144"/>
<line class="edge" x1="107.14285714285714" y1="221.42857142857144" x2="135.71428571428572" y2="221.42857142857144"/>
<line class="edge" x1="135.71428571428572" y1="221.42857142857144" x2="135.71428571428572" y2="250.0"/>
<line class="edge" x1="135.71428571428572" y1="221.42857142857144" x2="164.28571428571428" y2="221.42857142857144"/>
<line class="edge" x1="164.28571428571428" y1="250.0" x2="135.71428571428572" y2="250.0"/>
<line class="edge" x1="135.71428571428572" y1="250.0" x2="135.71428571428572" y2="221.42857142857144"/>
<line class="edge" x1="164.28571428571428" y1="221.42857142857144" x2="192.85714285714286" y2="221.42857142857144"/>
<line class="edge" x1="192.85714285714286" y1="250.0" x2="164.28571428571428" y2="250.0"/>
<line class="edge" x1="221.42857142857144" y1="221.42857142857144" x2="221.42857142857144" y2="250.0"/>
<line class="edge" x1="221.42857142857144" y1="250.0" x2="192.85714285714286" y2="250.0"/>
<line class="edge" x1="250.0" y1="221.42857142857144" x2="250.0" y2="250.0"/>
<line class="edge" x1="221.42857142857144" y1="250.0" x2="221.42857142857144" y2="221.42857142857144"/>
<line class="edge" x1="250.0" y1="221.42857142857144" x2="278.57142857142856" y2="221.42857142857144"/>
<line class="edge" x1="250.0" y1="250.0" x2="250.0" y2="221.42857142857144"/>
<line class="edge" x1="307.14285714285717" y1="221.42857142857144" x2="307.14285714285717" y2="250.0"/>
<line class="edge" x1="307.14285714285717" y1="250.0" x2="278.57142857142856" y2="250.0"/>
<line class="edge" x1="307.14285714285717" y1="250.0" x2="307.14285714285717" y2="221.42857142857144"/>
<line class="edge" x1="335.7142857142857" y1="221.42857142857144" x2="364.2857142857143" y2="221.42857142857144"/>
<line class="edge" x1="364.2857142857143" y1="221.42857142857144" x2="364.2857142857143" y2="250.0"/>
<line class="edge" x1="364.2857142857143" y1="221.42857142857144" x2="392.8571428571429" y2="221.42857142857144"/>
<line class="edge" x1="364.2857142857143" y1="250.0" x2="364.2857142857143" y2="221.42857142857144"/>
<line class="edge" x1="421.42857142857144" y1="221.42857142857144" x2="421.42857142857144" y2="250.0"/>
<line class="edge" x1="421.42857142857144" y1="250.0" x2="392.8571428571429" y2="250.0"/>
<line class="edge" x1="450.0" y1="221.42857142857144" x2="450.0" y2="250.0"/>
<line class="edge" x1="450.0" y1="250.0" x2="421.42857142857144" y2="250.0"/>
<line class="edge" x1="421.42857142857144" y1="250.0" x2="421.42857142857144" y2="221.42857142857144"/>
<line class="edge" x1="78.57142857142857" y1="250.0" x2="78.57142857142857" y2="278.57142857142856"/>
<line class="edge" x1="50.0" y1="278.57142857142856" x2="50.0" y2="250.0"/>
<line class="edge" x1="78.57142857142857" y1="250.0" x2="107.14285714285714" y2="250.0"/>
<line class="edge" x1="107.14285714285714" y1="250.0" x2="107.14285714285714" y2="278.57142857142856"/>
<line class="edge" x1="78.57142857142857" y1="278.57142857142856" x2="78.57142857142857" y2="250.0"/>
<line class="edge" x1="135.71428571428572" y1="278.57142857142856" x2="107.14285714285714" y2="278.57142857142856"/>
<line class="edge" x1="107.14285714285714" y1="278.57142857142856" x2="107.14285714285714" y2="250.0"/>
<line class="edge" x1="135.71428571428572" y1="250.0" x2="164.28571428571428" y2="250.0"/>
<line class="edge" x1="164.28571428571428" y1="278.57142857142856" x2="135.71428571428572" y2="278.57142857142856"/>
<line class="edge" x1="164.28571428571428" y1="250.0" x2="192.85714285714286" y2="250.0"/>
<line class="edge" x1="192.85714285714286" y1="278.57142857142856" x2="164.28571428571428" y2="278.57142857142856"/>
<line class="edge" x1="192.85714285714286" y1="250.0" x2="221.42857142857144" y2="250.0"/>
<line class="edge" x1="221.42857142857144" y1="278.57142857142856" x2="192.85714285714286" y2="278.57142857142856"/>
<line class="edge" x1="250.0" y1="250.0" x2="250.0" y2="278.57142857142856"/>
<line class="edge" x1="250.0" y1="278.57142857142856" x2="221.42857142857144" y2="278.57142857142856"/>
<line class="edge" x1="278.57142857142856" y1="250.0" x2="278.57142857142856" y2="278.57142857142856"/>
<line class="edge" x1="278.57142857142856" y1="278.57142857142856" x2="250.0" y2="278.57142857142856"/>
<line class="edge" x1="250.0" y1="278.57142857142856" x2="250.0" y2="250.0"/>
<line class="edge" x1="278.57142857142856" y1="250.0" x2="307.14285714285717" y2="250.0"/>
<line class="edge" x1="278.57142857142856" y1="278.57142857142856" x2="278.57142857142856" y2="250.0"/>
<line class="edge" x1="335.7142857142857" y1="250.0" x2="335.7142857142857" y2="278.57142857142856"/>
<line class="edge" x1="335.7142857142857" y1="278.57142857142856" x2="307.14285714285717" y2="278.57142857142856"/>
<line class="edge" x1="364.2857142857143" y1="250.0" x2="364.2857142857143" y2="278.57142857142856"/>
<line class="edge" x1="335.7142857142857" y1="278.57142857142856" x2="335.7142857142857" y2="250.0"/>
<line class="edge" x1="392.8571428571429" y1="278.57142857142856" x2="364.2857142857143" y2="278.57142857142856"/>
<line class="edge" x1="364.2857142857143" y1="278.57142857142856" x2="364.2857142857143" y2="250.0"/>
<line class="edge" x1="392.8571428571429" y1="250.0" x2="421.42857142857144" y2="250.0"/>
<line class="edge" x1="421.42857142857144" y1="278.57142857142856" x2="392.8571428571429" y2="278.57142857142856"/>
<line class="edge" x1="421.42857142857144" y1="250.0" x2="450.0" y2="250.0"/>
<line class="edge" x1="450.0" y1="250.0" x2="450.0" y2="278.57142857142856"/>
<line class="edge" x1="50.0" y1="307.14285714285717" x2="50.0" y2="278.57142857142856"/>
<line class="edge" x1="107.14285714285714" y1="307.14285714285717" x2="78.57142857142857" y2="307.14285714285717"/>
<line class="edge" x1="107.14285714285714" y1="278.57142857142856" x2="135.71428571428572" y2="278.57142857142856"/>
<line class="edge" x1="135.71428571428572" y1="278.57142857142856" x2="135.71428571428572" y2="307.14285714285717"/>
<line class="edge" x1="135.71428571428572" y1="278.57142857142856" x2="164.28571428571428" y2="278.57142857142856"/>
<line class="edge" x1="135.71428571428572" y1="307.14285714285717" x2="135.71428571428572" y2="278.57142857142856"/>
<line class="edge" x1="164.28571428571428" y1="278.57142857142856" x2="192.85714285714286" y2="278.57142857142856"/>
<line class="edge" x1="192.85714285714286" y1="307.14285714285717" x2="164.28571428571428" y2="307.14285714285717"/>
<line class="edge" x1="192.85714285714286" y1="278.57142857142856" x2="221.42857142857144" y2="278.57142857142856"/>
<line class="edge" x1="221.42857142857144" y1="278.57142857142856" x2="250.0" y2="278.57142857142856"/>
<line class="edge" x1="250.0" y1="307.14285714285717" x2="221.42857142857144" y2="307.14285714285717"/>
<line class="edge" x1="250.0" y1="278.57142857142856" x2="278.57142857142856" y2="278.57142857142856"/>
<line class="edge" x1="278.57142857142856" y1="278.57142857142856" x2="278.57142857142856" y2="307.14285714285717"/>
<line class="edge" x1="307.14285714285717" y1="278.57142857142856" x2="307.14285714285717" y2="307.14285714285717"/>
<line class="edge" x1="278.57142857142856" y1="307.14285714285717" x2="278.57142857142856" y2="278.57142857142856"/>
<line class="edge" x1="307.14285714285717" y1="278.57142857142856" x2="335.7142857142857" y2="278.57142857142856"/>
<line class="edge" x1="307.14285714285717" y1="307.14285714285717" x2="307.14285714285717" y2="278.57142857142856"/>
<line class="edge" x1="364.2857142857143" y1="278.57142857142856" x2="364.2857142857143" y2="307.14285714285717"/>
<line class="edge" x1="364.2857142857143" y1="307.14285714285717" x2="335.7142857142857" y2="307.14285714285717"/>
<line class="edge" x1="364.2857142857143" y1="278.57142857142856" x2="392.8571428571429" y2="278.57142857142856"/>
<line class="edge" x1="364.2857142857143" y1="307.14285714285717" x2="364.2857142857143" y2="278.57142857142856"/>
<line class="edge" x1="392.8571428571429" y1="278.57142857142856" x2="421.42857142857144" y2="278.57142857142856"/>
<line class="edge" x1="421.42857142857144" y1="307.14285714285717" x2="392.8571428571429" y2="307.14285714285717"/>
<line class="edge" x1="450.0" y1="278.57142857142856" x2="450.0" y2="307.14285714285717"/>
<line class="edge" x1="450.0" y1="307.14285714285717" x2="421.42857142857144" y2="307.14285714285717"/>
<line class="edge" x1="78.57142857142857" y1="307.14285714285717" x2="78.57142857142857" y2="335.7142857142857"/>
<line class="edge" x1="50.0" y1="335.7142857142857" x2="50.0" y2="307.14285714285717"/>
<line class="edge" x1="78.57142857142857" y1="307.14285714285717" x2="107.14285714285714" y2="307.14285714285717"/>
<line class="edge" x1="107.14285714285714" y1="307.14285714285717" x2="107.14285714285714" y2="335.7142857142857"/>
<line class="edge" x1="78.57142857142857" y1="335.7142857142857" x2="78.57142857142857" y2="307.14285714285717"/>
<line class="edge" x1="135.71428571428572" y1="307.14285714285717" x2="135.71428571428572" y2="335.7142857142857"/>
<line class="edge" x1="107.14285714285714" y1="335.7142857142857" x2="107.14285714285714" y2="307.14285714285717"/>
<line class="edge" x1="164.28571428571428" y1="335.7142857142857" x2="135.71428571428572" y2="335.7142857142857"/>
<line class="edge" x1="135.71428571428572" y1="335.7142857142857" x2="135.71428571428572" y2="307.14285714285717"/>
<line class="edge" x1="164.28571428571428" y1="307.14285714285717" x2="192.85714285714286" y2="307.14285714285717"/>
<line class="edge" x1="192.85714285714286" y1="307.14285714285717" x2="192.85714285714286" y2="335.7142857142857"/>
<line class="edge" x1="221.42857142857144" y1="307.14285714285717" x2="221.42857142857144" y2="335.7142857142857"/>
<line class="edge" x1="192.85714285714286" y1="335.7142857142857" x2="192.85714285714286" y2="307.14285714285717"/>
<line class="edge" x1="221.42857142857144" y1="307.14285714285717" x2="250.0" y2="307.14285714285717"/>
<line class="edge" x1="250.0" y1="307.14285714285717" x2="250.0" y2="335.7142857142857"/>
<line class="edge" x1="221.42857142857144" y1="335.7142857142857" x2="221.42857142857144" y2="307.14285714285717"/>
<line class="edge" x1="278.57142857142856" y1="307.14285714285717" x2="278.57142857142856" y2="335.7142857142857"/>
<line class="edge" x1="250.0" y1="335.7142857142857" x2="250.0" y2="307.14285714285717"/>
<line class="edge" x1="307.14285714285717" y1="307.14285714285717" x2="307.14285714285717" y2="335.7142857142857"/>
<line class="edge" x1="278.57142857142856" y1="335.7142857142857" x2="278.57142857142856" y2="307.14285714285717"/>
<line class="edge" x1="335.7142857142857" y1="335.7142857142857" x2="307.14285714285717" y2="335.7142857142857"/>
<line class="edge" x1="307.14285714285717" y1="335.7142857142857" x2="307.14285714285717" y2="307.14285714285717"/>
<line class="edge" x1="335.7142857142857" y1="307.14285714285717" x2="364.2857142857143" y2="307.14285714285717"/>
<line class="edge" x1="364.2857142857143" y1="307.14285714285717" x2="364.2857142857143" y2="335.7142857142857"/>
<line class="edge" x1="392.8571428571429" y1="307.14285714285717" x2="392.8571428571429" y2="335.7142857142857"/>
<line class="edge" x1="364.2857142857143" y1="335.7142857142857" x2="364.2857142857143" y2="307.14285714285717"/>
<line class="edge" x1="392.8571428571429" y1="307.14285714285717" x2="421.42857142857144" y2="307.14285714285717"/>
<line class="edge" x1="392.8571428571429" y1="335.7142857142857" x2="392.8571428571429" y2="307.14285714285717"/>
<line class="edge" x1="421.42857142857144" y1="307.14285714285717" x2="450.0" y2="307.14285714285717"/>
<line class="edge" x1="450.0" y1="307.14285714285717" x2="450.0" y2="335.7142857142857"/>
<line class="edge" x1="78.57142857142857" y1="335.7142857142857" x2="78.57142857142857" y2="364.2857142857143"/>
<line class="edge" x1="78.57142857142857" y1="364.2857142857143" x2="50.0" y2="364.2857142857143"/>
<line class="edge" x1="50.0" y1="364.2857142857143" x2="50.0" y2="335.7142857142857"/>
<line class="edge" x1="107.14285714285714" y1="335.7142857142857" x2="107.14285714285714" y2="364.2857142857143"/>
<line class="edge" x1="78.57142857142857" y1="364.2857142857143" x2="78.57142857142857" y2="335.7142857142857"/>
<line class="edge" x1="135.71428571428572" y1="335.7142857142857" x2="135.71428571428572" y2="364.2857142857143"/>
<line class="edge" x1="107.14285714285714" y1="364.2857142857143" x2="107.14285714285714" y2="335.7142857142857"/>
<line class="edge" x1="135.71428571428572" y1="335.7142857142857" x2="164.28571428571428" y2="335.7142857142857"/>
<line class="edge" x1="164.28571428571428" y1="364.2857142857143" x2="135.71428571428572" y2="364.2857142857143"/>
<line class="edge" x1="135.71428571428572" y1="364.2857142857143" x2="135.71428571428572" y2="335.7142857142857"/>
<line class="edge" x1="192.85714285714286" y1="335.7142857142857" x2="192.85714285714286" y2="364.2857142857143"/>
<line class="edge" x1="192.85714285714286" y1="364.2857142857143" x2="164.28571428571428" y2="364.2857142857143"/>
<line class="edge" x1="221.42857142857144" y1="335.7142857142857" x2="221.42857142857144" y2="364.2857142857143"/>
<line class="edge" x1="192.85714285714286" y1="364.2857142857143" x2="192.85714285714286" y2="335.7142857142857"/>
<line class="edge" x1="250.0" y1="335.7142857142857" x2="250.0" y2="364.2857142857143"/>
<line class="edge" x1="221.42857142857144" y1="364.2857142857143" x2="221.42857142857144" y2="335.7142857142857"/>
<line class="edge" x1="278.57142857142856" y1="335.7142857142857" x2="278.57142857142856" y2="364.2857142857143"/>
<line class="edge" x1="250.0" y1="364.2857142857143" x2="250.0" y2="335.7142857142857"/>
<line class="edge" x1="307.14285714285717" y1="335.7142857142857" x2="307.14285714285717" y2="364.2857142857143"/>
<line class="edge" x1="278.57142857142856" y1="364.2857142857143" x2="278.57142857142856" y2="335.7142857142857"/>
<line class="edge" x1="307.14285714285717" y1="335.7142857142857" x2="335.7142857142857" y2="335.7142857142857"/>
<line class="edge" x1="307.14285714285717" y1="364.2857142857143" x2="307.14285714285717" y2="335.7142857142857"/>
<line class="edge" x1="364.2857142857143" y1="335.7142857142857" x2="364.2857142857143" y2="364.2857142857143"/>
<line class="edge" x1="364.2857142857143" y1="364.2857142857143" x2="335.7142857142857" y2="364.2857142857143"/>
<line class="edge" x1="392.8571428571429" y1="364.2857142857143" x2="364.2857142857143" y2="364.2857142857143"/>
<line class="edge" x1="364.2857142857143" y1="364.2857142857143" x2="364.2857142857143" y2="335.7142857142857"/>
<line class="edge" x1="421.42857142857144" y1="335.7142857142857" x2="421.42857142857144" y2="364.2857142857143"/>
<line class="edge" x1="421.42857142857144" y1="364.2857142857143" x2="392.8571428571429" y2="364.2857142857143"/>
<line class="edge" x1="450.0" y1="335.7142857142857" x2="450.0" y2="364.2857142857143"/>
<line class="edge" x1="421.42857142857144" y1="364.2857142857143" x2="421.42857142857144" y2="335.7142857142857"/>
<line class="edge" x1="50.0" y1="364.2857142857143" x2="78.57142857142857" y2="364.2857142857143"/>
<line class="edge" x1="50.0" y1="392.8571428571429" x2="50.0" y2="364.2857142857143"/>
<line class="edge" x1="107.14285714285714" y1="364.2857142857143" x2="107.14285714285714" y2="392.8571428571429"/>
<line class="edge" x1="107.14285714285714" y1="392.8571428571429" x2="78.57142857142857" y2="392.8571428571429"/>
<line class="edge" x1="135.71428571428572" y1="392.8571428571429" x2="107.14285714285714" y2="392.8571428571429"/>
<line class="edge" x1="107.14285714285714" y1="392.8571428571429" x2="107.14285714285714" y2="364.2857142857143"/>
<line class="edge" x1="135.71428571428572" y1="364.2857142857143" x2="164.28571428571428" y2="364.2857142857143"/>
<line class="edge" x1="164.28571428571428" y1="392.8571428571429" x2="135.71428571428572" y2="392.8571428571429"/>
<line class="edge" x1="164.28571428571428" y1="364.2857142857143" x2="192.85714285714286" y2="364.2857142857143"/>
<line class="edge" x1="192.85714285714286" y1="392.8571428571429" x2="164.28571428571428" y2="392.8571428571429"/>
<line class="edge" x1="221.42857142857144" y1="364.2857142857143" x2="221.42857142857144" y2="392.8571428571429"/>
<line class="edge" x1="221.42857142857144" y1="392.8571428571429" x2="192.85714285714286" y2="392.8571428571429"/>
<line class="edge" x1="250.0" y1="392.8571428571429" x2="221.42857142857144" y2="392.8571428571429"/>
<line class="edge" x1="221.42857142857144" y1="392.8571428571429" x2="221.42857142857144" y2="364.2857142857143"/>
<line class="edge" x1="307.14285714285717" y1="364.2857142857143" x2="307.14285714285717" y2="392.8571428571429"/>
<line class="edge" x1="307.14285714285717" y1="392.8571428571429" x2="278.57142857142856" y2="392.8571428571429"/>
<line class="edge" x1="335.7142857142857" y1="364.2857142857143" x2="335.7142857142857" y2="392.8571428571429"/>
<line class="edge" x1="335.7142857142857" y1="392.8571428571429" x2="307.14285714285717" y2="392.8571428571429"/>
<line class="edge" x1="307.14285714285717" y1="392.8571428571429" x2="307.14285714285717" y2="364.2857142857143"/>
<line class="edge" x1="335.7142857142857" y1="364.2857142857143" x2="364.2857142857143" y2="364.2857142857143"/>
<line class="edge" x1="335.7142857142857" y1="392.8571428571429" x2="335.7142857142857" y2="364.2857142857143"/>
<line class="edge" x1="364.2857142857143" y1="364.2857142857143" x2="392.8571428571429" y2="364.2857142857143"/>
<line class="edge" x1="392.8571428571429" y1="364.2857142857143" x2="392.8571428571429" y2="392.8571428571429"/>
<line class="edge" x1="392.8571428571429" y1="364.2857142857143" x2="421.42857142857144" y2="364.2857142857143"/>
<line class="edge" x1="392.8571428571429" y1="392.8571428571429" x2="392.8571428571429" y2="364.2857142857143"/>
<line class="edge" x1="450.0" y1="364.2857142857143" x2="450.0" y2="392.8571428571429"/>
<line class="edge" x1="450.0" y1="392.8571428571429" x2="421.42857142857144" y2="392.8571428571429"/>
<line class="edge" x1="78.57142857142857" y1="392.8571428571429" x2="78.57142857142857" y2="421.42857142857144"/>
<line class="edge" x1="50.0" y1="421.42857142857144" x2="50.0" y2="392.8571428571429"/>
<line class="edge" x1="78.57142857142857" y1="392.8571428571429" x2="107.14285714285714" y2="392.8571428571429"/>
<line class="edge" x1="78.57142857142857" y1="421.42857142857144" x2="78.57142857142857" y2="392.8571428571429"/>
<line class="edge" x1="107.14285714285714" y1="392.8571428571429" x2="135.71428571428572" y2="392.8571428571429"/>
<line class="edge" x1="135.71428571428572" y1="392.8571428571429" x2="135.71428571428572" y2="421.42857142857144"/>
<line class="edge" x1="135.71428571428572" y1="392.8571428571429" x2="164.28571428571428" y2="392.8571428571429"/>
<line class="edge" x1="135.71428571428572" y1="421.42857142857144" x2="135.71428571428572" y2="392.8571428571429"/>
<line class="edge" x1="164.28571428571428" y1="392.8571428571429" x2="192.85714285714286" y2="392.8571428571429"/>
<line class="edge" x1="192.85714285714286" y1="392.8571428571429" x2="192.85714285714286" y2="421.42857142857144"/>
<line class="edge" x1="192.85714285714286" y1="392.8571428571429" x2="221.42857142857144" y2="392.8571428571429"/>
<line class="edge" x1="192.85714285714286" y1="421.42857142857144" x2="192.85714285714286" y2="392.8571428571429"/>
<line class="edge" x1="221.42857142857144" y1="392.8571428571429" x2="250.0" y2="392.8571428571429"/>
<line class="edge" x1="250.0" y1="392.8571428571429" x2="250.0" y2="421.42857142857144"/>
<line class="edge" x1="278.57142857142856" y1="392.8571428571429" x2="278.57142857142856" y2="421.42857142857144"/>
<line class="edge" x1="278.57142857142856" y1="421.42857142857144" x2="250.0" y2="421.42857142857144"/>
<line class="edge" x1="250.0" y1="421.42857142857144" x2="250.0" y2="392.8571428571429"/>
<line class="edge" x1="278.57142857142856" y1="392.8571428571429" x2="307.14285714285717" y2="392.8571428571429"/>
<line class="edge" x1="278.57142857142856" y1="421.42857142857144" x2="278.57142857142856" y2="392.8571428571429"/>
<line class="edge" x1="307.14285714285717" y1="392.8571428571429" x2="335.7142857142857" y2="392.8571428571429"/>
<line class="edge" x1="335.7142857142857" y1="392.8571428571429" x2="335.7142857142857" y2="421.42857142857144"/>
<line class="edge" x1="364.2857142857143" y1="392.8571428571429" x2="364.2857142857143" y2="421.42857142857144"/>
<line class="edge" x1="335.7142857142857" y1="421.42857142857144" x2="335.7142857142857" y2="392.8571428571429"/>
<line class="edge" x1="392.8571428571429" y1="392.8571428571429" x2="392.8571428571429" y2="421.42857142857144"/>
<line class="edge" x1="364.2857142857143" y1="421.42857142857144" x2="364.2857142857143" y2="392.8571428571429"/>
<line class="edge" x1="421.42857142857144" y1="421.42857142857144" x2="392.8571428571429" y2="421.42857142857144"/>
<line class="edge" x1="392.8571428571429" y1="421.42857142857144" x2="392.8571428571429" y2="392.8571428571429"/>
<line class="edge" x1="421.42857142857144" y1="392.8571428571429" x2="450.0" y2="392.8571428571429"/>
<line class="edge" x1="450.0" y1="392.8571428571429" x2="450.0" y2="421.42857142857144"/>
<line class="edge" x1="78.57142857142857" y1="450.0" x2="50.0" y2="450.0"/>
<line class="edge" x1="50.0" y1="450.0" x2="50.0" y2="421.42857142857144"/>
<line class="edge" x1="107.14285714285714" y1="421.42857142857144" x2="107.14285714285714" y2="450.0"/>
<line class="edge" x1="107.14285714285714" y1="450.0" x2="78.57142857142857" y2="450.0"/>
<line class="edge" x1="135.71428571428572" y1="450.0" x2="107.14285714285714" y2="450.0"/>
<line class="edge" x1="107.14285714285714" y1="450.0" x2="107.14285714285714" y2="421.42857142857144"/>
<line class="edge" x1="164.28571428571428" y1="421.42857142857144" x2="164.28571428571428" y2="450.0"/>
<line class="edge" x1="164.28571428571428" y1="450.0" x2="135.71428571428572" y2="450.0"/>
<line class="edge" x1="192.85714285714286" y1="450.0" x2="164.28571428571428" y2="450.0"/>
<line class="edge" x1="164.28571428571428" y1="450.0" x2="164.28571428571428" y2="421.42857142857144"/>
<line class="edge" x1="221.42857142857144" y1="421.42857142857144" x2="221.42857142857144" y2="450.0"/>
<line class="edge" x1="221.42857142857144" y1="450.0" x2="192.85714285714286" y2="450.0"/>
<line class="edge" x1="250.0" y1="450.0" x2="221.42857142857144" y2="450.0"/>
<line class="edge" x1="221.42857142857144" y1="450.0" x2="221.42857142857144" y2="421.42857142857144"/>
<line class="edge" x1="250.0" y1="421.42857142857144" x2="278.57142857142856" y2="421.42857142857144"/>
<line class="edge" x1="278.57142857142856" y1="450.0" x2="250.0" y2="450.0"/>
<line class="edge" x1="307.14285714285717" y1="421.42857142857144" x2="307.14285714285717" y2="450.0"/>
<line class="edge" x1="307.14285714285717" y1="450.0" x2="278.57142857142856" y2="450.0"/>
<line class="edge" x1="335.7142857142857" y1="450.0" x2="307.14285714285717" y2="450.0"/>
<line class="edge" x1="307.14285714285717" y1="450.0" x2="307.14285714285717" y2="421.42857142857144"/>
<line class="edge" x1="364.2857142857143" y1="421.42857142857144" x2="364.2857142857143" y2="450.0"/>
<line class="edge" x1="364.2857142857143" y1="450.0" x2="335.7142857142857" y2="450.0"/>
<line class="edge" x1="392.8571428571429" y1="450.0" x2="364.2857142857143" y2="450.0"/>
<line class="edge" x1="364.2857142857143" y1="450.0" x2="364.2857142857143" y2="421.42857142857144"/>
<line class="edge" x1="392.8571428571429" y1="421.42857142857144" x2="421.42857142857144" y2="421.42857142857144"/>
<line class="edge" x1="421.42857142857144" y1="450.0" x2="392.8571428571429" y2="450.0"/>
<line class="edge" x1="450.0" y1="421.42857142857144" x2="450.0" y2="450.0"/>
</svg>